
<svg id="visual" viewBox="0 0 900 900" width="600" height="600" xmlns="http://www.w3.org/2000/svg" xmlns:xlink="http://www.w3.org/1999/xlink" version="1.1"><path d="M0 325L180 163L360 154L540 253L720 226L900 244L900 0L720 0L540 0L360 0L180 0L0 0Z" fill="#00cc8e"></path><path d="M0 397L180 280L360 208L540 334L720 271L900 334L900 242L720 224L540 251L360 152L180 161L0 323Z" fill="#00c08c"></path><path d="M0 577L180 577L360 523L540 487L720 442L900 496L900 332L720 269L540 332L360 206L180 278L0 395Z" fill="#00b388"></path><path d="M0 694L180 685L360 640L540 586L720 496L900 604L900 494L720 440L540 485L360 521L180 575L0 575Z" fill="#00a784"></path><path d="M0 739L180 793L360 721L540 667L720 577L900 649L900 602L720 494L540 584L360 638L180 683L0 692Z" fill="#009b7f"></path><path d="M0 802L180 838L360 766L540 811L720 793L900 856L900 647L720 575L540 665L360 719L180 791L0 737Z" fill="#008f79"></path><path d="M0 901L180 901L360 901L540 901L720 901L900 901L900 854L720 791L540 809L360 764L180 836L0 800Z" fill="#038373"></path></svg>