
<svg id="visual" viewBox="0 0 900 900" width="600" height="600" xmlns="http://www.w3.org/2000/svg" xmlns:xlink="http://www.w3.org/1999/xlink" version="1.1"><rect x="0" y="0" width="900" height="900" fill="#931C1C"></rect><path d="M0 201L50 220L100 301L150 268L200 385L250 302L300 194L350 405L400 416L450 332L500 325L550 465L600 306L650 217L700 373L750 416L800 192L850 167L900 451L900 901L850 901L800 901L750 901L700 901L650 901L600 901L550 901L500 901L450 901L400 901L350 901L300 901L250 901L200 901L150 901L100 901L50 901L0 901Z" fill="#871400"></path><path d="M0 511L50 515L100 565L150 363L200 407L250 574L300 488L350 321L400 491L450 489L500 494L550 411L600 485L650 332L700 338L750 376L800 432L850 501L900 569L900 901L850 901L800 901L750 901L700 901L650 901L600 901L550 901L500 901L450 901L400 901L350 901L300 901L250 901L200 901L150 901L100 901L50 901L0 901Z" fill="#ac3505"></path><path d="M0 632L50 581L100 668L150 630L200 657L250 549L300 564L350 534L400 670L450 498L500 586L550 496L600 572L650 545L700 629L750 639L800 583L850 554L900 556L900 901L850 901L800 901L750 901L700 901L650 901L600 901L550 901L500 901L450 901L400 901L350 901L300 901L250 901L200 901L150 901L100 901L50 901L0 901Z" fill="#d15308"></path><path d="M0 639L50 698L100 715L150 681L200 779L250 790L300 651L350 667L400 785L450 640L500 705L550 756L600 761L650 747L700 778L750 716L800 753L850 714L900 682L900 901L850 901L800 901L750 901L700 901L650 901L600 901L550 901L500 901L450 901L400 901L350 901L300 901L250 901L200 901L150 901L100 901L50 901L0 901Z" fill="#f5730a"></path></svg>