<svg id="svg" version="1.1" width="525" height="800" xmlns="http://www.w3.org/2000/svg"><path d="M246.000 2.814 C 220.889 9.488,202.350 19.355,188.325 33.510 C 173.906 48.065,168.890 64.066,168.747 95.976 C 168.687 109.294,168.970 112.300,170.742 117.127 L 172.808 122.754 166.431 122.242 C 160.341 121.754,159.929 121.865,157.277 124.723 C 155.387 126.760,153.926 130.100,152.702 135.183 C 150.227 145.465,150.653 146.682,166.736 175.269 C 172.018 184.657,175.770 189.000,178.600 189.000 C 181.589 189.000,182.312 193.519,182.751 214.974 L 183.193 236.500 178.496 243.500 C 170.679 255.149,163.067 262.113,142.422 276.500 C 131.828 283.883,116.743 295.918,107.852 304.081 C 103.002 308.534,95.763 314.884,91.767 318.191 C 87.770 321.498,80.000 328.598,74.500 333.968 C 65.246 343.004,54.726 351.393,45.862 356.804 C 43.350 358.338,40.564 361.826,36.862 368.077 C 33.913 373.056,30.240 379.238,28.700 381.815 C 17.113 401.202,11.810 423.145,7.990 467.500 C 7.422 474.100,6.071 486.925,4.989 496.000 C 1.148 528.189,-0.219 550.414,0.404 570.500 C 1.980 621.219,2.192 662.708,1.063 699.261 C 0.157 728.630,0.134 741.770,0.971 751.500 C 2.055 764.100,5.321 788.873,6.837 796.000 L 7.582 799.500 52.291 799.760 C 85.961 799.956,97.000 799.731,97.000 798.848 C 97.000 797.739,96.421 795.630,91.824 780.000 C 84.327 754.511,83.940 752.324,83.312 732.000 C 82.751 713.871,82.790 713.380,85.251 707.500 C 86.632 704.200,89.157 697.225,90.863 692.000 C 97.333 672.181,98.983 666.114,102.606 648.806 L 104.426 640.111 107.774 648.806 C 116.641 671.833,121.900 693.642,121.977 707.707 C 121.990 710.021,123.575 718.059,125.500 725.570 C 129.312 740.442,129.757 745.636,127.582 749.842 C 126.802 751.351,125.636 755.491,124.992 759.042 C 123.911 765.007,121.262 772.080,117.332 779.500 C 112.631 788.374,108.000 798.025,108.000 798.948 C 108.000 799.680,163.030 800.000,289.000 800.000 L 470.000 800.000 469.940 792.750 C 469.908 788.763,469.472 783.250,468.972 780.500 C 468.472 777.750,467.398 770.775,466.585 765.000 C 465.773 759.225,464.649 751.350,464.087 747.500 C 463.525 743.650,462.561 736.000,461.943 730.500 C 458.013 695.505,456.355 688.592,445.027 660.000 C 438.171 642.695,436.470 631.624,430.976 568.500 C 430.498 563.000,428.732 552.034,427.053 544.131 C 423.316 526.544,423.218 519.185,426.465 500.000 C 435.374 447.363,436.148 437.697,433.475 412.500 C 429.649 376.435,426.859 366.269,417.605 354.683 C 414.914 351.313,403.050 342.011,394.500 336.568 C 392.850 335.518,389.475 332.984,387.000 330.938 C 379.753 324.945,375.539 323.342,365.365 322.711 C 357.794 322.242,355.162 321.606,349.997 318.999 C 342.323 315.124,324.032 302.745,318.134 297.433 L 313.767 293.500 314.353 286.458 C 314.676 282.584,315.399 277.184,315.961 274.458 C 317.922 264.937,321.000 245.476,321.000 242.592 C 321.000 240.782,322.438 237.762,324.809 234.592 C 333.177 223.406,334.168 221.792,336.539 215.493 C 337.893 211.897,339.000 207.512,339.000 205.750 C 339.000 203.988,339.651 199.160,340.446 195.023 C 343.115 181.133,344.219 174.539,344.968 168.000 C 345.546 162.951,346.525 160.278,349.352 156.029 C 353.197 150.250,353.639 148.620,354.349 137.601 C 354.820 130.292,354.812 130.274,348.482 125.104 C 347.134 124.004,346.899 122.736,347.371 119.104 C 350.318 96.437,350.394 78.971,347.580 71.112 C 346.869 69.125,345.715 65.700,345.017 63.500 C 343.020 57.206,334.557 40.044,330.470 33.998 C 325.341 26.413,319.734 20.674,311.500 14.584 C 298.438 4.924,286.405 0.954,268.500 0.397 C 257.829 0.065,255.337 0.333,246.000 2.814 " stroke="none" fill="undefined" fill-rule="evenodd"/></svg>